<?xml version="1.0" encoding="UTF-8" standalone="no"?>
<!DOCTYPE svg PUBLIC "-//W3C//DTD SVG 1.1//EN" "http://www.w3.org/Graphics/SVG/1.1/DTD/svg11.dtd">
<svg xmlns="http://www.w3.org/2000/svg" version="1.1" viewBox="0.00 0.00 876.00 492.00">
<path fill="#5C62EC" d="
  M 253.22 160.66
  L 218.32 169.81
  Q 217.73 169.97 217.71 170.58
  Q 217.53 177.02 211.80 179.35
  C 206.16 181.65 200.19 177.47 199.88 171.51
  Q 199.69 168.01 201.42 165.77
  C 203.80 162.68 207.89 161.11 211.67 162.54
  C 214.33 163.54 215.31 164.81 216.75 166.94
  Q 217.11 167.47 217.73 167.31
  L 252.87 158.17
  A 1.33 1.32 -2.8 0 0 253.84 157.11
  Q 254.45 153.41 257.68 151.37
  Q 263.27 147.85 268.70 152.17
  Q 269.10 152.49 269.57 152.29
  L 303.62 137.87
  A 0.54 0.53 -22.9 0 0 303.91 137.18
  Q 302.17 132.86 304.72 129.10
  C 307.85 124.49 313.64 123.79 318.06 127.19
  Q 318.51 127.54 318.92 127.13
  L 353.99 92.09
  A 0.30 0.28 -41.8 0 0 354.02 91.72
  C 346.23 81.15 362.15 70.75 368.66 81.57
  Q 371.79 86.78 367.58 91.99
  A 0.46 0.45 -49.4 0 0 367.62 92.60
  L 452.84 173.40
  Q 453.26 173.80 453.73 173.46
  Q 457.06 171.01 461.45 172.26
  Q 462.25 172.49 462.66 171.77
  L 547.69 23.90
  Q 548.07 23.25 547.53 22.72
  C 542.92 18.24 543.63 11.45 549.19 8.19
  C 553.98 5.37 559.96 7.80 561.83 12.93
  C 563.32 17.02 561.71 21.89 557.58 24.06
  Q 557.08 24.32 557.24 24.86
  L 606.47 197.21
  A 0.79 0.79 0.0 0 0 607.32 197.77
  Q 610.02 197.44 612.64 199.12
  Q 613.21 199.49 613.69 198.99
  L 649.74 160.96
  Q 650.14 160.54 649.82 160.05
  C 647.00 155.69 647.76 150.83 651.82 147.63
  C 655.70 144.56 661.42 145.47 664.38 149.53
  C 668.24 154.82 665.55 161.51 659.36 163.42
  Q 658.84 163.58 658.87 164.12
  L 661.80 219.20
  A 0.60 0.60 0.0 0 0 662.27 219.76
  C 668.73 221.31 672.33 227.54 668.70 233.45
  C 666.48 237.06 661.72 238.80 657.76 237.02
  Q 651.42 234.18 652.26 226.79
  Q 652.33 226.22 651.79 226.00
  L 616.00 211.11
  A 0.46 0.45 -61.6 0 0 615.45 211.28
  C 610.85 218.18 602.16 216.44 599.34 209.16
  A 0.88 0.86 76.6 0 0 598.45 208.60
  L 570.78 210.97
  Q 570.20 211.02 570.13 211.59
  C 569.39 217.34 563.94 221.00 558.20 218.84
  C 552.92 216.87 550.62 210.67 553.79 205.85
  Q 554.34 205.00 553.65 204.25
  Q 538.09 187.70 522.04 170.71
  Q 521.18 169.80 520.25 169.01
  Q 519.83 168.66 519.35 168.90
  Q 511.98 172.49 506.89 165.73
  Q 506.56 165.30 506.05 165.48
  L 468.31 178.80
  Q 467.70 179.02 467.81 179.65
  C 467.97 180.62 467.98 181.75 467.71 182.69
  Q 465.82 189.17 458.80 189.80
  C 456.78 189.99 455.06 189.04 453.44 187.98
  Q 452.87 187.61 452.35 188.05
  L 417.66 218.12
  Q 417.30 218.43 417.48 218.86
  Q 420.41 226.18 414.66 230.53
  C 410.86 233.41 404.88 232.43 402.13 228.29
  Q 400.40 225.69 400.59 222.37
  A 0.86 0.86 0.0 0 0 400.00 221.50
  L 324.76 195.87
  Q 324.27 195.70 324.01 196.15
  C 318.37 205.82 304.30 198.76 307.91 188.62
  Q 308.13 188.01 307.58 187.67
  L 270.00 164.53
  Q 269.49 164.22 269.07 164.65
  Q 266.00 167.81 261.88 167.60
  Q 256.14 167.31 253.87 161.01
  Q 253.70 160.53 253.22 160.66
  Z
  M 570.72 208.44
  L 598.42 206.24
  Q 598.96 206.19 599.05 205.66
  Q 599.85 200.87 603.86 198.80
  Q 604.38 198.53 604.22 197.97
  L 554.96 25.51
  Q 554.81 24.97 554.25 24.98
  L 552.79 25.00
  Q 552.30 25.01 552.17 25.49
  L 518.25 152.28
  Q 518.12 152.77 518.54 153.05
  Q 526.36 158.28 521.92 166.68
  Q 521.68 167.14 522.03 167.51
  L 555.52 202.73
  Q 555.93 203.16 556.46 202.89
  Q 563.41 199.29 568.43 205.12
  C 569.14 205.94 569.55 207.06 570.02 208.03
  A 0.73 0.72 -14.4 0 0 570.72 208.44
  Z
  M 549.10 26.14
  L 464.65 172.99
  Q 464.32 173.55 464.81 173.99
  Q 465.90 174.95 466.56 176.26
  Q 466.82 176.76 467.34 176.57
  L 505.16 163.18
  Q 505.68 163.00 505.67 162.45
  Q 505.45 152.93 515.48 152.14
  Q 515.87 152.11 515.97 151.74
  L 549.57 26.34
  Q 550.09 24.42 549.10 26.14
  Z
  M 320.12 129.88
  C 325.03 138.96 312.52 147.66 305.79 140.32
  A 1.09 1.09 0.0 0 0 304.56 140.05
  L 271.04 154.29
  Q 270.48 154.53 270.73 155.08
  Q 271.63 157.03 271.54 159.27
  C 271.50 160.20 270.99 161.08 271.06 161.95
  Q 271.10 162.44 271.52 162.70
  L 308.86 185.68
  Q 309.40 186.01 309.86 185.57
  Q 313.23 182.38 318.11 182.81
  Q 318.75 182.87 319.00 182.28
  L 356.33 94.07
  A 0.18 0.18 0.0 0 0 356.19 93.82
  Q 355.81 93.76 355.54 94.03
  Q 339.31 110.16 320.22 129.22
  A 0.56 0.55 -37.3 0 0 320.12 129.88
  Z
  M 451.07 174.94
  L 366.87 95.18
  Q 363.20 91.70 364.92 96.46
  L 407.31 213.74
  Q 407.50 214.29 408.08 214.25
  Q 411.96 213.99 415.25 216.36
  Q 415.69 216.67 416.10 216.32
  L 450.77 186.27
  A 1.00 0.99 -35.1 0 0 450.99 185.04
  C 449.31 182.03 449.73 179.09 451.27 176.08
  Q 451.59 175.44 451.07 174.94
  Z
  M 358.40 95.09
  L 321.07 183.49
  A 0.82 0.81 29.0 0 0 321.36 184.47
  Q 325.58 187.41 325.22 192.93
  Q 325.18 193.54 325.76 193.73
  L 400.78 219.27
  Q 401.36 219.47 401.68 218.93
  Q 402.86 216.90 404.76 215.58
  Q 405.36 215.16 405.11 214.47
  L 362.10 95.50
  Q 361.85 94.78 361.09 94.91
  Q 360.25 95.05 359.45 94.68
  Q 358.72 94.34 358.40 95.09
  Z
  M 617.07 209.18
  L 652.78 224.00
  A 0.74 0.73 -63.0 0 0 653.69 223.70
  Q 655.46 220.76 658.73 219.96
  Q 659.44 219.79 659.40 219.06
  L 656.53 164.52
  Q 656.49 163.72 655.70 163.61
  Q 653.88 163.35 652.50 162.40
  Q 651.96 162.03 651.51 162.51
  L 615.30 200.59
  Q 614.88 201.04 615.23 201.54
  Q 617.58 204.88 616.75 208.57
  A 0.53 0.53 0.0 0 0 617.07 209.18
  Z"
/>
<path fill="#5C62EC" d="
  M 145.09 286.45
  C 145.46 277.80 149.90 269.16 158.70 266.38
  Q 168.20 263.39 177.74 266.50
  Q 189.15 270.22 191.05 282.48
  Q 191.43 285.00 188.89 285.00
  L 185.33 285.00
  Q 183.33 284.99 182.92 283.04
  C 181.77 277.66 179.57 273.58 173.86 271.98
  C 164.36 269.32 154.81 272.77 153.48 283.38
  Q 152.16 293.91 153.35 304.86
  Q 154.76 317.73 167.59 318.02
  Q 180.48 318.31 182.82 306.70
  Q 183.24 304.62 185.35 304.62
  L 188.74 304.62
  Q 191.47 304.62 191.02 307.31
  Q 188.93 319.83 177.07 323.67
  Q 167.84 326.66 158.46 323.52
  C 149.71 320.58 145.43 312.21 145.08 303.28
  Q 144.74 294.65 145.09 286.45
  Z"
/>
<path fill="#5C62EC" d="
  M 316.88 279.98
  C 316.75 284.87 321.03 287.68 325.16 289.04
  Q 332.58 291.48 339.60 293.81
  C 345.23 295.68 350.64 299.40 351.30 305.77
  Q 352.71 319.18 339.58 323.55
  C 328.42 327.27 309.19 324.64 307.31 309.91
  Q 307.01 307.63 309.31 307.63
  L 312.79 307.62
  Q 314.71 307.62 315.27 309.46
  C 317.69 317.40 326.17 318.77 333.50 317.80
  C 338.56 317.13 343.44 314.39 343.48 308.86
  Q 343.52 303.62 337.78 301.22
  Q 332.23 298.90 325.53 297.02
  Q 319.32 295.28 314.87 292.37
  C 307.75 287.72 307.17 277.49 312.34 271.43
  Q 316.02 267.13 322.42 265.69
  C 333.12 263.28 346.92 266.63 349.72 278.61
  Q 350.29 281.07 347.77 281.06
  L 343.42 281.03
  A 1.67 1.66 -5.0 0 1 341.79 279.67
  Q 340.82 274.42 335.24 272.29
  Q 328.61 269.75 321.91 272.54
  Q 317.02 274.58 316.88 279.98
  Z"
/>
<path fill="#5C62EC" d="
  M 36.46 314.36
  A 0.19 0.19 0.0 0 0 36.70 314.24
  L 52.72 267.88
  Q 53.37 266.00 55.36 266.00
  L 58.78 266.00
  Q 61.48 266.00 60.59 268.54
  L 41.85 322.25
  A 2.61 2.60 -80.4 0 1 39.39 324.00
  L 33.78 324.00
  A 2.95 2.94 -9.6 0 1 31.00 322.03
  L 12.37 268.56
  Q 11.57 266.27 13.99 266.10
  Q 16.02 265.96 17.17 265.88
  Q 19.45 265.73 20.21 267.89
  Q 28.00 290.28 36.01 313.92
  Q 36.12 314.25 36.46 314.36
  Z"
/>
<rect fill="#5C62EC" x="70.77" y="266.00" width="7.98" height="58.00" rx="1.79"/>
<path fill="#5C62EC" d="
  M 99.46 312.06
  L 95.23 322.93
  A 1.69 1.69 0.0 0 1 93.65 324.01
  L 89.24 323.99
  A 1.69 1.69 0.0 0 1 87.67 321.69
  L 108.57 267.14
  A 1.69 1.69 0.0 0 1 110.15 266.05
  L 117.05 266.05
  A 1.69 1.69 0.0 0 1 118.63 267.14
  L 139.51 321.69
  A 1.69 1.69 0.0 0 1 137.92 323.99
  L 133.47 323.95
  A 1.69 1.69 0.0 0 1 131.91 322.88
  L 127.67 312.06
  A 1.69 1.69 0.0 0 0 126.10 310.99
  L 101.04 310.98
  A 1.69 1.69 0.0 0 0 99.46 312.06
  Z
  M 102.53 303.55
  A 0.34 0.34 0.0 0 0 102.84 304.01
  L 124.39 303.97
  A 0.34 0.34 0.0 0 0 124.71 303.51
  L 113.88 275.06
  A 0.34 0.34 0.0 0 0 113.25 275.06
  L 102.53 303.55
  Z"
/>
<path fill="#5C62EC" d="
  M 238.79 289.65
  L 238.78 267.44
  A 1.37 1.37 0.0 0 1 240.16 266.07
  L 245.37 266.09
  A 1.37 1.37 0.0 0 1 246.73 267.46
  L 246.74 322.54
  A 1.37 1.37 0.0 0 1 245.37 323.92
  L 240.13 323.93
  A 1.37 1.37 0.0 0 1 238.75 322.56
  L 238.81 299.35
  A 1.37 1.37 0.0 0 0 237.44 297.98
  L 211.40 297.97
  A 1.37 1.37 0.0 0 0 210.03 299.34
  L 210.04 322.55
  A 1.37 1.37 0.0 0 1 208.68 323.92
  L 203.64 323.97
  A 1.37 1.37 0.0 0 1 202.26 322.60
  L 202.31 267.41
  A 1.37 1.37 0.0 0 1 203.68 266.05
  L 208.69 266.06
  A 1.37 1.37 0.0 0 1 210.05 267.43
  L 210.05 289.66
  A 1.37 1.37 0.0 0 0 211.42 291.03
  L 237.42 291.02
  A 1.37 1.37 0.0 0 0 238.79 289.65
  Z"
/>
<path fill="#5C62EC" d="
  M 269.97 317.03
  L 298.20 317.00
  A 1.27 1.27 0.0 0 1 299.47 318.28
  L 299.45 322.74
  A 1.27 1.27 0.0 0 1 298.18 324.00
  L 262.33 323.99
  A 1.27 1.27 0.0 0 1 261.06 322.72
  L 261.10 267.28
  A 1.27 1.27 0.0 0 1 262.37 266.01
  L 297.48 266.00
  A 1.27 1.27 0.0 0 1 298.75 267.21
  L 298.92 270.70
  A 1.27 1.27 0.0 0 1 297.65 272.03
  L 269.97 272.03
  A 1.27 1.27 0.0 0 0 268.70 273.30
  L 268.69 290.64
  A 1.27 1.27 0.0 0 0 269.96 291.91
  L 295.73 291.93
  A 1.27 1.27 0.0 0 1 296.99 293.19
  L 297.01 296.71
  A 1.27 1.27 0.0 0 1 295.73 297.99
  L 269.92 297.97
  A 1.27 1.27 0.0 0 0 268.65 299.24
  L 268.70 315.76
  A 1.27 1.27 0.0 0 0 269.97 317.03
  Z"
/>
<path fill="#5C62EC" d="
  M 371.65 317.06
  L 398.07 316.98
  A 1.57 1.57 0.0 0 1 399.64 318.55
  L 399.65 322.42
  A 1.57 1.57 0.0 0 1 398.08 323.99
  L 363.83 324.00
  A 1.57 1.57 0.0 0 1 362.26 322.43
  L 362.30 267.58
  A 1.57 1.57 0.0 0 1 363.87 266.02
  L 368.53 266.03
  A 1.57 1.57 0.0 0 1 370.09 267.60
  L 370.08 315.49
  A 1.57 1.57 0.0 0 0 371.65 317.06
  Z"
/>
<path fill="#5C62EC" d="
  M 441.38 310.98
  L 416.41 310.99
  A 1.77 1.77 0.0 0 0 414.76 312.12
  L 410.62 322.85
  A 1.77 1.77 0.0 0 1 408.97 323.99
  L 404.72 324.01
  A 1.77 1.77 0.0 0 1 403.05 321.60
  L 423.87 267.17
  A 1.77 1.77 0.0 0 1 425.53 266.03
  L 432.33 266.04
  A 1.77 1.77 0.0 0 1 433.98 267.18
  L 454.82 321.61
  A 1.77 1.77 0.0 0 1 453.16 324.01
  L 448.86 323.99
  A 1.77 1.77 0.0 0 1 447.21 322.87
  L 443.03 312.11
  A 1.77 1.77 0.0 0 0 441.38 310.98
  Z
  M 417.79 303.60
  A 0.30 0.30 0.0 0 0 418.07 304.00
  L 439.77 304.00
  A 0.30 0.30 0.0 0 0 440.05 303.60
  L 429.20 275.00
  A 0.30 0.30 0.0 0 0 428.64 275.00
  L 417.79 303.60
  Z"
/>
<path fill="#5C62EC" d="
  M 479.75 313.99
  L 495.75 267.77
  Q 496.36 266.00 498.23 266.00
  L 501.66 266.00
  Q 504.48 266.00 503.55 268.67
  L 484.94 322.02
  A 2.95 2.93 -80.7 0 1 482.21 324.00
  Q 479.47 324.03 476.88 323.98
  Q 474.54 323.94 473.76 321.67
  Q 464.27 294.05 455.33 268.51
  Q 454.58 266.36 456.84 266.08
  Q 458.64 265.86 460.89 265.94
  Q 462.59 266.00 463.15 267.61
  L 479.11 313.99
  Q 479.43 314.92 479.75 313.99
  Z"
/>
<path fill="#5C62EC" d="
  M 567.39 293.94
  Q 576.74 300.10 574.67 311.01
  C 573.64 316.46 569.65 320.98 564.44 322.73
  C 562.52 323.37 560.57 324.01 558.51 324.01
  Q 545.57 324.00 533.45 323.99
  A 1.70 1.69 -0.0 0 1 531.75 322.30
  L 531.76 267.55
  A 1.56 1.56 0.0 0 1 533.33 265.99
  Q 542.82 266.08 554.24 265.94
  Q 561.97 265.84 565.74 267.78
  C 575.65 272.86 577.18 286.88 567.40 293.20
  Q 566.83 293.57 567.39 293.94
  Z
  M 539.50 272.49
  L 539.50 290.45
  A 0.44 0.44 0.0 0 0 539.94 290.89
  L 555.93 290.89
  A 9.85 8.47 -0.0 0 0 565.78 282.42
  L 565.78 280.52
  A 9.85 8.47 0.0 0 0 555.93 272.05
  L 539.94 272.05
  A 0.44 0.44 0.0 0 0 539.50 272.49
  Z
  M 539.49 297.49
  L 539.55 317.45
  A 0.46 0.46 0.0 0 0 540.02 317.91
  L 556.53 317.85
  A 10.49 9.94 -0.2 0 0 566.98 307.87
  L 566.98 306.87
  A 10.49 9.94 -0.2 0 0 556.45 296.97
  L 539.94 297.03
  A 0.46 0.46 0.0 0 0 539.49 297.49
  Z"
/>
<path fill="#5C62EC" d="
  M 595.55 291.93
  L 621.41 291.94
  A 1.27 1.27 0.0 0 1 622.68 293.21
  L 622.66 296.72
  A 1.27 1.27 0.0 0 1 621.39 297.99
  L 595.54 297.97
  A 1.27 1.27 0.0 0 0 594.27 299.24
  L 594.27 315.75
  A 1.27 1.27 0.0 0 0 595.54 317.02
  L 623.94 317.01
  A 1.27 1.27 0.0 0 1 625.21 318.29
  L 625.17 322.73
  A 1.27 1.27 0.0 0 1 623.90 323.99
  L 588.04 323.99
  A 1.27 1.27 0.0 0 1 586.77 322.72
  L 586.79 267.29
  A 1.27 1.27 0.0 0 1 588.06 266.02
  L 623.20 266.00
  A 1.27 1.27 0.0 0 1 624.47 267.25
  L 624.52 270.76
  A 1.27 1.27 0.0 0 1 623.25 272.05
  L 595.53 272.00
  A 1.27 1.27 0.0 0 0 594.26 273.27
  L 594.28 290.66
  A 1.27 1.27 0.0 0 0 595.55 291.93
  Z"
/>
<path fill="#5C62EC" d="
  M 664.53 273.00
  L 635.55 273.00
  Q 633.61 273.00 633.63 271.05
  L 633.66 267.91
  Q 633.68 266.00 635.59 266.00
  L 673.19 266.00
  A 1.42 1.41 85.8 0 1 674.59 267.21
  C 674.93 269.38 675.08 272.16 673.73 274.06
  Q 658.74 295.07 643.32 316.53
  A 0.30 0.30 0.0 0 0 643.56 317.00
  L 673.54 317.00
  Q 675.82 317.00 675.79 319.29
  L 675.75 321.76
  Q 675.72 324.00 673.49 324.00
  L 634.71 324.00
  A 1.88 1.88 0.0 0 1 632.84 322.31
  C 632.63 320.28 632.41 317.88 633.69 316.12
  Q 649.69 294.04 664.78 273.51
  A 0.32 0.32 0.0 0 0 664.53 273.00
  Z"
/>
<path fill="#5C62EC" d="
  M 705.54 317.86
  C 716.75 319.16 722.32 312.46 722.28 302.17
  Q 722.23 285.39 722.32 268.08
  Q 722.34 266.00 724.41 266.00
  L 728.09 266.00
  A 2.13 2.13 0.0 0 1 730.22 268.12
  Q 730.31 286.14 730.18 302.98
  Q 730.13 309.75 727.43 315.04
  C 722.47 324.75 709.63 326.69 700.03 324.01
  C 689.81 321.16 685.72 312.72 685.74 302.58
  Q 685.78 285.20 685.74 268.05
  Q 685.74 265.99 687.80 266.00
  L 691.89 266.01
  Q 693.51 266.02 693.51 267.64
  Q 693.49 283.59 693.54 301.03
  C 693.56 309.39 696.03 316.75 705.54 317.86
  Z"
/>
<path fill="#5C62EC" d="
  M 753.53 317.06
  L 779.93 316.98
  A 1.57 1.57 0.0 0 1 781.51 318.56
  L 781.47 322.43
  A 1.57 1.57 0.0 0 1 779.90 323.99
  L 745.60 323.99
  A 1.57 1.57 0.0 0 1 744.03 322.42
  L 744.07 267.59
  A 1.57 1.57 0.0 0 1 745.64 266.02
  L 750.38 266.03
  A 1.57 1.57 0.0 0 1 751.95 267.60
  L 751.95 315.49
  A 1.57 1.57 0.0 0 0 753.53 317.06
  Z"
/>
<rect fill="#5C62EC" x="790.71" y="266.01" width="7.80" height="57.98" rx="1.60"/>
<path fill="#5C62EC" d="
  M 818.95 312.12
  L 814.78 322.87
  A 1.77 1.77 0.0 0 1 813.13 323.99
  L 808.81 324.01
  A 1.77 1.77 0.0 0 1 807.16 321.61
  L 828.04 267.16
  A 1.77 1.77 0.0 0 1 829.70 266.02
  L 836.52 266.05
  A 1.77 1.77 0.0 0 1 838.16 267.18
  L 858.98 321.60
  A 1.77 1.77 0.0 0 1 857.32 324.00
  L 853.06 323.99
  A 1.77 1.77 0.0 0 1 851.41 322.87
  L 847.23 312.12
  A 1.77 1.77 0.0 0 0 845.58 310.99
  L 820.60 310.99
  A 1.77 1.77 0.0 0 0 818.95 312.12
  Z
  M 822.00 303.54
  A 0.34 0.34 0.0 0 0 822.32 304.00
  L 843.88 304.00
  A 0.34 0.34 0.0 0 0 844.20 303.54
  L 833.42 275.13
  A 0.34 0.34 0.0 0 0 832.78 275.13
  L 822.00 303.54
  Z"
/>
<path fill="#5C62EC" d="
  M 530.9885 367.2735
  A 6.67 6.67 0.0 0 1 524.3418 373.9668
  L 516.8018 373.9931
  A 6.67 6.67 0.0 0 1 510.1086 367.3464
  L 510.0715 356.7265
  A 6.67 6.67 0.0 0 1 516.7182 350.0332
  L 524.2582 350.0069
  A 6.67 6.67 0.0 0 1 530.9514 356.6536
  L 530.9885 367.2735
  Z
  M 523.0872 357.8944
  A 1.85 1.85 0.0 0 0 521.2404 356.0411
  L 519.9404 356.0389
  A 1.85 1.85 0.0 0 0 518.0872 357.8856
  L 518.0728 366.1256
  A 1.85 1.85 0.0 0 0 519.9196 367.9789
  L 521.2196 367.9811
  A 1.85 1.85 0.0 0 0 523.0728 366.1344
  L 523.0872 357.8944
  Z"
/>
<path fill="#5C62EC" d="
  M 264.76 361.97
  L 264.50 351.88
  Q 264.48 350.98 265.37 350.99
  L 271.42 351.04
  Q 272.17 351.04 272.17 351.79
  Q 272.09 358.34 272.12 365.51
  C 272.13 368.38 270.88 370.96 269.87 373.52
  Q 269.67 374.00 269.15 374.00
  L 264.06 373.99
  A 1.96 1.95 -1.1 0 1 262.10 372.11
  Q 262.01 370.04 261.42 368.40
  Q 260.61 366.18 260.01 368.47
  L 258.80 373.14
  Q 258.57 373.99 257.69 373.99
  L 252.57 373.98
  Q 251.90 373.98 251.66 373.35
  Q 251.24 372.21 250.46 371.27
  A 1.57 1.52 28.6 0 1 250.10 370.11
  Q 250.19 369.14 249.47 368.45
  A 1.36 1.34 23.0 0 1 249.06 367.46
  L 249.27 351.73
  Q 249.28 350.99 250.02 351.00
  L 256.23 351.04
  Q 256.87 351.05 256.88 351.69
  Q 256.92 355.65 256.74 360.18
  Q 256.72 360.56 256.94 360.85
  Q 257.38 361.44 257.62 360.74
  Q 258.73 357.56 262.42 359.17
  Q 263.12 359.48 263.38 360.19
  Q 263.77 361.25 264.39 362.09
  Q 264.78 362.62 264.76 361.97
  Z"
/>
<path fill="#5C62EC" d="
  M 291.35 358.90
  L 298.48 359.08
  A 0.41 0.41 0.0 0 1 298.88 359.49
  L 298.95 364.56
  A 0.41 0.41 0.0 0 1 298.54 364.97
  L 291.66 365.03
  A 0.41 0.41 0.0 0 0 291.25 365.42
  L 291.17 367.53
  A 0.41 0.41 0.0 0 0 291.57 367.96
  L 300.84 368.12
  A 0.41 0.41 0.0 0 1 301.25 368.53
  L 301.33 373.53
  A 0.41 0.41 0.0 0 1 300.92 373.95
  L 284.07 374.01
  A 0.41 0.41 0.0 0 1 283.66 373.60
  L 283.52 351.41
  A 0.41 0.41 0.0 0 1 283.93 351.00
  L 300.90 351.04
  A 0.41 0.41 0.0 0 1 301.31 351.46
  L 301.24 356.51
  A 0.41 0.41 0.0 0 1 300.84 356.91
  L 291.69 357.11
  A 0.41 0.41 0.0 0 0 291.32 357.39
  L 290.97 358.36
  A 0.41 0.41 0.0 0 0 291.35 358.90
  Z"
/>
<path fill="#5C62EC" d="
  M 330.01 360.14
  Q 329.50 360.82 330.25 361.20
  Q 332.77 362.46 332.98 365.23
  C 333.27 369.10 333.43 374.14 328.11 374.05
  Q 320.69 373.94 313.77 374.02
  A 1.21 1.21 0.0 0 1 312.54 372.81
  L 312.53 352.03
  A 1.06 1.05 -0.0 0 1 313.59 350.98
  Q 320.36 351.03 326.56 350.98
  C 328.52 350.96 330.19 352.43 330.69 354.25
  Q 331.69 357.93 330.01 360.14
  Z
  M 320.20 356.64
  L 320.12 359.26
  A 0.71 0.71 0.0 0 0 320.81 359.99
  L 322.26 360.03
  A 1.78 1.64 1.7 0 0 324.09 358.45
  L 324.11 357.69
  A 1.78 1.64 1.7 0 0 322.38 356.00
  L 320.93 355.95
  A 0.71 0.71 0.0 0 0 320.20 356.64
  Z
  M 325.1423 365.5917
  A 0.56 0.56 0.0 0 0 324.5872 365.0268
  L 320.7474 364.9933
  A 0.56 0.56 0.0 0 0 320.1825 365.5484
  L 320.1577 368.3883
  A 0.56 0.56 0.0 0 0 320.7128 368.9532
  L 324.5526 368.9867
  A 0.56 0.56 0.0 0 0 325.1175 368.4316
  L 325.1423 365.5917
  Z"
/>
<path fill="#5C62EC" d="
  M 359.14 351.41
  A 0.44 0.44 0.0 0 1 359.58 350.97
  L 373.65 351.00
  A 6.42 6.15 -89.9 0 1 379.79 357.43
  L 379.77 367.63
  A 6.42 6.15 -89.9 0 1 373.61 374.04
  L 359.54 374.01
  A 0.44 0.44 0.0 0 1 359.10 373.57
  L 359.14 351.41
  Z
  M 371.9876 358.1744
  A 1.13 1.13 0.0 0 0 370.8595 357.0424
  L 368.0795 357.0376
  A 1.13 1.13 0.0 0 0 366.9476 358.1656
  L 366.9324 366.8256
  A 1.13 1.13 0.0 0 0 368.0605 367.9576
  L 370.8405 367.9624
  A 1.13 1.13 0.0 0 0 371.9724 366.8344
  L 371.9876 358.1744
  Z"
/>
<path fill="#5C62EC" d="
  M 399.09 358.93
  L 405.73 359.17
  A 0.42 0.42 0.0 0 1 406.13 359.59
  L 406.07 364.51
  A 0.42 0.42 0.0 0 1 405.65 364.93
  L 399.22 365.03
  A 0.42 0.42 0.0 0 0 398.81 365.45
  L 398.78 367.56
  A 0.42 0.42 0.0 0 0 399.20 367.98
  L 408.54 368.05
  A 0.42 0.42 0.0 0 1 408.95 368.46
  L 409.02 373.58
  A 0.42 0.42 0.0 0 1 408.60 374.00
  L 391.54 374.00
  A 0.42 0.42 0.0 0 1 391.12 373.58
  L 391.13 351.42
  A 0.42 0.42 0.0 0 1 391.55 351.00
  L 408.42 351.01
  A 0.42 0.42 0.0 0 1 408.84 351.43
  L 408.88 356.57
  A 0.42 0.42 0.0 0 1 408.46 356.99
  L 399.34 357.03
  A 0.42 0.42 0.0 0 0 398.94 357.35
  L 398.69 358.41
  A 0.42 0.42 0.0 0 0 399.09 358.93
  Z"
/>
<path fill="#5C62EC" d="
  M 430.18 366.57
  A 0.66 0.66 0.0 0 0 430.95 365.95
  Q 431.03 364.41 431.82 363.15
  Q 432.09 362.73 432.09 362.23
  L 432.11 351.83
  Q 432.11 351.02 432.92 351.02
  L 439.57 351.03
  Q 440.27 351.03 440.22 351.72
  Q 439.89 356.22 440.07 360.67
  Q 440.17 363.06 439.28 365.22
  Q 437.48 369.53 435.92 373.42
  A 0.94 0.93 -78.6 0 1 435.06 374.00
  L 424.96 373.99
  Q 424.33 373.99 424.08 373.42
  Q 422.13 368.88 420.76 365.12
  Q 419.21 360.88 419.49 352.90
  Q 419.56 350.99 421.46 351.00
  L 426.60 351.01
  Q 427.95 351.01 427.93 352.36
  Q 427.89 356.29 427.90 360.39
  C 427.90 362.30 428.76 364.00 429.31 365.80
  Q 429.51 366.45 430.18 366.57
  Z"
/>
<path fill="#5C62EC" d="
  M 459.22 358.91
  L 466.43 359.15
  A 0.42 0.42 0.0 0 1 466.84 359.56
  L 466.90 364.46
  A 0.42 0.42 0.0 0 1 466.50 364.88
  L 459.50 365.07
  A 0.42 0.42 0.0 0 0 459.09 365.49
  L 459.09 367.55
  A 0.42 0.42 0.0 0 0 459.50 367.97
  L 468.72 368.11
  A 0.42 0.42 0.0 0 1 469.14 368.53
  L 469.22 373.54
  A 0.42 0.42 0.0 0 1 468.80 373.97
  L 451.89 374.00
  A 0.42 0.42 0.0 0 1 451.47 373.58
  L 451.31 351.42
  A 0.42 0.42 0.0 0 1 451.73 351.00
  L 468.73 351.03
  A 0.42 0.42 0.0 0 1 469.15 351.45
  L 469.18 356.51
  A 0.42 0.42 0.0 0 1 468.77 356.93
  L 459.53 357.08
  A 0.42 0.42 0.0 0 0 459.14 357.38
  L 458.83 358.36
  A 0.42 0.42 0.0 0 0 459.22 358.91
  Z"
/>
<path fill="#5C62EC" d="
  M 492.14 367.15
  L 492.17 362.31
  A 0.91 0.91 0.0 0 1 493.08 361.41
  L 498.95 361.39
  A 0.91 0.91 0.0 0 1 499.87 362.30
  L 499.94 373.07
  A 0.91 0.91 0.0 0 1 499.03 373.99
  L 481.27 374.00
  A 0.91 0.91 0.0 0 1 480.36 373.10
  L 480.23 351.92
  A 0.91 0.91 0.0 0 1 481.14 351.01
  L 487.32 351.04
  A 0.91 0.91 0.0 0 1 488.22 351.96
  L 488.09 367.16
  A 0.91 0.91 0.0 0 0 489.00 368.07
  L 491.23 368.06
  A 0.91 0.91 0.0 0 0 492.14 367.15
  Z"
/>
<path fill="#5C62EC" d="
  M 549.97 368.49
  L 550.07 372.82
  Q 550.10 373.99 548.93 373.99
  L 543.03 373.99
  Q 542.06 373.99 542.06 373.03
  L 542.08 351.55
  Q 542.08 350.98 542.64 350.99
  Q 548.89 351.04 555.58 350.97
  C 562.41 350.89 561.45 358.85 561.21 363.04
  C 561.02 366.28 557.98 368.24 554.88 368.04
  Q 552.50 367.89 550.34 368.08
  A 0.40 0.40 0.0 0 0 549.97 368.49
  Z
  M 549.86 357.39
  L 549.90 361.63
  A 0.39 0.39 0.0 0 0 550.29 362.01
  L 552.10 362.00
  A 2.00 1.92 -0.5 0 0 554.09 360.06
  L 554.07 358.88
  A 2.00 1.92 -0.5 0 0 552.06 356.98
  L 550.25 357.00
  A 0.39 0.39 0.0 0 0 549.86 357.39
  Z"
/>
<path fill="#5C62EC" d="
  M 580.07 358.89
  L 586.71 359.10
  A 0.41 0.41 0.0 0 1 587.11 359.50
  L 587.19 364.51
  A 0.41 0.41 0.0 0 1 586.79 364.93
  L 580.21 365.09
  A 0.41 0.41 0.0 0 0 579.81 365.50
  L 579.81 367.53
  A 0.41 0.41 0.0 0 0 580.21 367.94
  L 589.56 368.06
  A 0.41 0.41 0.0 0 1 589.97 368.48
  L 589.95 373.56
  A 0.41 0.41 0.0 0 1 589.54 373.97
  L 572.50 374.00
  A 0.41 0.41 0.0 0 1 572.09 373.59
  L 572.07 351.39
  A 0.41 0.41 0.0 0 1 572.48 350.98
  L 589.50 351.05
  A 0.41 0.41 0.0 0 1 589.91 351.46
  L 589.86 356.49
  A 0.41 0.41 0.0 0 1 589.46 356.90
  L 580.06 357.15
  A 0.41 0.41 0.0 0 0 579.66 357.56
  L 579.67 358.48
  A 0.41 0.41 0.0 0 0 580.07 358.89
  Z"
/>
<path fill="#5C62EC" d="
  M 619.03 361.79
  C 620.93 362.66 622.05 364.34 621.96 366.48
  Q 621.81 369.78 622.02 372.86
  Q 622.09 373.99 620.97 373.99
  L 615.02 374.00
  Q 613.78 374.00 613.94 372.77
  Q 614.22 370.54 614.09 368.11
  Q 614.03 367.01 612.94 367.01
  L 609.77 367.00
  Q 608.92 366.99 608.95 367.84
  L 609.13 373.42
  Q 609.15 374.00 608.57 374.00
  L 601.70 374.00
  Q 601.15 374.00 601.15 373.45
  L 601.11 351.49
  Q 601.11 350.99 601.61 350.99
  Q 608.66 351.00 614.93 351.01
  C 619.58 351.01 620.37 355.70 619.71 359.54
  Q 619.62 360.08 619.21 360.43
  L 618.88 360.71
  Q 618.11 361.37 619.03 361.79
  Z
  M 612.0135 357.7080
  A 0.73 0.73 0.0 0 0 611.2684 356.9935
  L 609.6487 357.0274
  A 0.73 0.73 0.0 0 0 608.9342 357.7725
  L 608.9865 360.2720
  A 0.73 0.73 0.0 0 0 609.7316 360.9865
  L 611.3513 360.9526
  A 0.73 0.73 0.0 0 0 612.0658 360.2075
  L 612.0135 357.7080
  Z"
/>
<path fill="#5C62EC" d="
  M 360.39 446.41
  L 420.55 425.87
  Q 421.08 425.69 421.07 425.13
  Q 420.97 418.54 426.05 415.93
  C 430.77 413.51 436.05 415.62 438.22 420.41
  A 0.71 0.71 0.0 0 0 438.94 420.83
  L 571.27 407.85
  Q 571.85 407.79 572.08 407.25
  C 572.63 405.91 572.43 404.57 573.34 403.32
  C 575.42 400.47 578.92 398.48 582.56 399.35
  Q 587.25 400.46 589.08 404.56
  Q 590.54 407.81 589.25 411.23
  C 587.23 416.61 580.98 418.54 576.16 415.40
  Q 575.67 415.08 575.26 415.49
  L 518.41 471.85
  Q 517.97 472.28 518.32 472.79
  Q 520.18 475.51 519.79 478.12
  Q 518.54 486.61 510.30 486.53
  Q 507.49 486.51 505.43 484.87
  C 502.77 482.74 501.13 478.52 502.40 475.20
  Q 502.80 474.18 501.88 473.56
  L 437.18 430.07
  Q 436.76 429.79 436.37 430.12
  Q 431.04 434.68 425.38 431.53
  C 424.25 430.91 423.00 429.80 422.54 428.56
  Q 422.25 427.78 421.47 428.05
  L 361.50 448.52
  A 0.80 0.80 0.0 0 0 360.95 449.32
  C 361.11 452.82 359.43 456.92 356.18 458.39
  Q 351.22 460.64 346.68 457.55
  Q 344.25 455.90 343.34 452.33
  C 342.04 447.23 346.09 442.22 351.05 441.70
  Q 356.64 441.11 359.83 446.21
  Q 360.03 446.53 360.39 446.41
  Z
  M 516.91 470.13
  L 573.21 414.16
  Q 573.74 413.63 573.46 412.94
  L 572.60 410.83
  Q 572.28 410.06 571.44 410.14
  L 439.53 423.01
  Q 438.83 423.08 438.95 423.77
  Q 439.26 425.60 438.23 427.18
  Q 437.88 427.72 438.41 428.07
  L 503.52 471.87
  Q 503.98 472.18 504.35 471.78
  Q 509.30 466.65 515.99 470.26
  Q 516.50 470.54 516.91 470.13
  Z"
/>
</svg>
